<?xml version="1.0" standalone="no"?>
<!DOCTYPE svg PUBLIC "-//W3C//DTD SVG 1.1//EN" "http://www.w3.org/Graphics/SVG/1.1/DTD/svg11.dtd">
<svg version="1.1" width="1200" height="518" onload="init(evt)" viewBox="0 0 1200 518" xmlns="http://www.w3.org/2000/svg" xmlns:xlink="http://www.w3.org/1999/xlink">
<style type="text/css">
	text { font-family:Verdana; font-size:12px; fill:rgb(0,0,0); }
	#search { opacity:0.1; cursor:pointer; }
	#search:hover, #search.show { opacity:1; }
	#subtitle { text-anchor:middle; font-color:rgb(160,160,160); }
	#title { text-anchor:middle; font-size:17px}
	#unzoom { cursor:pointer; }
	#frames > *:hover { stroke:black; stroke-width:0.5; cursor:pointer; }
	.hide { display:none; }
	.parent { opacity:0.5; }
</style>
<script type="text/ecmascript">
<![CDATA[
	"use strict";
	var details, searchbtn, unzoombtn, matchedtxt, svg, searching;
	function init(evt) {
		details = document.getElementById("details").firstChild;
		searchbtn = document.getElementById("search");
		unzoombtn = document.getElementById("unzoom");
		matchedtxt = document.getElementById("matched");
		svg = document.getElementsByTagName("svg")[0];
		searching = 0;
	}

	window.addEventListener("click", function(e) {
		var target = find_group(e.target);
		if (target) {
			if (target.nodeName == "a") {
				if (e.ctrlKey === false) return;
				e.preventDefault();
			}
			if (target.classList.contains("parent")) unzoom();
			zoom(target);
		}
		else if (e.target.id == "unzoom") unzoom();
		else if (e.target.id == "search") search_prompt();
	}, false)

	// mouse-over for info
	// show
	window.addEventListener("mouseover", function(e) {
		var target = find_group(e.target);
		if (target) details.nodeValue = "Function: " + g_to_text(target);
	}, false)

	// clear
	window.addEventListener("mouseout", function(e) {
		var target = find_group(e.target);
		if (target) details.nodeValue = ' ';
	}, false)

	// ctrl-F for search
	window.addEventListener("keydown",function (e) {
		if (e.keyCode === 114 || (e.ctrlKey && e.keyCode === 70)) {
			e.preventDefault();
			search_prompt();
		}
	}, false)

	// functions
	function find_child(node, selector) {
		var children = node.querySelectorAll(selector);
		if (children.length) return children[0];
		return;
	}
	function find_group(node) {
		var parent = node.parentElement;
		if (!parent) return;
		if (parent.id == "frames") return node;
		return find_group(parent);
	}
	function orig_save(e, attr, val) {
		if (e.attributes["_orig_" + attr] != undefined) return;
		if (e.attributes[attr] == undefined) return;
		if (val == undefined) val = e.attributes[attr].value;
		e.setAttribute("_orig_" + attr, val);
	}
	function orig_load(e, attr) {
		if (e.attributes["_orig_"+attr] == undefined) return;
		e.attributes[attr].value = e.attributes["_orig_" + attr].value;
		e.removeAttribute("_orig_"+attr);
	}
	function g_to_text(e) {
		var text = find_child(e, "title").firstChild.nodeValue;
		return (text)
	}
	function g_to_func(e) {
		var func = g_to_text(e);
		// if there's any manipulation we want to do to the function
		// name before it's searched, do it here before returning.
		return (func);
	}
	function update_text(e) {
		var r = find_child(e, "rect");
		var t = find_child(e, "text");
		var w = parseFloat(r.attributes.width.value) -3;
		var txt = find_child(e, "title").textContent.replace(/\([^(]*\)$/,"");
		t.attributes.x.value = parseFloat(r.attributes.x.value) + 3;

		// Smaller than this size won't fit anything
		if (w < 2 * 12 * 0.59) {
			t.textContent = "";
			return;
		}

		t.textContent = txt;
		// Fit in full text width
		if (/^ *$/.test(txt) || t.getSubStringLength(0, txt.length) < w)
			return;

		for (var x = txt.length - 2; x > 0; x--) {
			if (t.getSubStringLength(0, x + 2) <= w) {
				t.textContent = txt.substring(0, x) + "..";
				return;
			}
		}
		t.textContent = "";
	}

	// zoom
	function zoom_reset(e) {
		if (e.attributes != undefined) {
			orig_load(e, "x");
			orig_load(e, "width");
		}
		if (e.childNodes == undefined) return;
		for (var i = 0, c = e.childNodes; i < c.length; i++) {
			zoom_reset(c[i]);
		}
	}
	function zoom_child(e, x, ratio) {
		if (e.attributes != undefined) {
			if (e.attributes.x != undefined) {
				orig_save(e, "x");
				e.attributes.x.value = (parseFloat(e.attributes.x.value) - x - 10) * ratio + 10;
				if (e.tagName == "text")
					e.attributes.x.value = find_child(e.parentNode, "rect[x]").attributes.x.value + 3;
			}
			if (e.attributes.width != undefined) {
				orig_save(e, "width");
				e.attributes.width.value = parseFloat(e.attributes.width.value) * ratio;
			}
		}

		if (e.childNodes == undefined) return;
		for (var i = 0, c = e.childNodes; i < c.length; i++) {
			zoom_child(c[i], x - 10, ratio);
		}
	}
	function zoom_parent(e) {
		if (e.attributes) {
			if (e.attributes.x != undefined) {
				orig_save(e, "x");
				e.attributes.x.value = 10;
			}
			if (e.attributes.width != undefined) {
				orig_save(e, "width");
				e.attributes.width.value = parseInt(svg.width.baseVal.value) - (10 * 2);
			}
		}
		if (e.childNodes == undefined) return;
		for (var i = 0, c = e.childNodes; i < c.length; i++) {
			zoom_parent(c[i]);
		}
	}
	function zoom(node) {
		var attr = find_child(node, "rect").attributes;
		var width = parseFloat(attr.width.value);
		var xmin = parseFloat(attr.x.value);
		var xmax = parseFloat(xmin + width);
		var ymin = parseFloat(attr.y.value);
		var ratio = (svg.width.baseVal.value - 2 * 10) / width;

		// XXX: Workaround for JavaScript float issues (fix me)
		var fudge = 0.0001;

		unzoombtn.classList.remove("hide");

		var el = document.getElementById("frames").children;
		for (var i = 0; i < el.length; i++) {
			var e = el[i];
			var a = find_child(e, "rect").attributes;
			var ex = parseFloat(a.x.value);
			var ew = parseFloat(a.width.value);
			var upstack;
			// Is it an ancestor
			if (0 == 0) {
				upstack = parseFloat(a.y.value) > ymin;
			} else {
				upstack = parseFloat(a.y.value) < ymin;
			}
			if (upstack) {
				// Direct ancestor
				if (ex <= xmin && (ex+ew+fudge) >= xmax) {
					e.classList.add("parent");
					zoom_parent(e);
					update_text(e);
				}
				// not in current path
				else
					e.classList.add("hide");
			}
			// Children maybe
			else {
				// no common path
				if (ex < xmin || ex + fudge >= xmax) {
					e.classList.add("hide");
				}
				else {
					zoom_child(e, xmin, ratio);
					update_text(e);
				}
			}
		}
	}
	function unzoom() {
		unzoombtn.classList.add("hide");
		var el = document.getElementById("frames").children;
		for(var i = 0; i < el.length; i++) {
			el[i].classList.remove("parent");
			el[i].classList.remove("hide");
			zoom_reset(el[i]);
			update_text(el[i]);
		}
	}

	// search
	function reset_search() {
		var el = document.querySelectorAll("#frames rect");
		for (var i = 0; i < el.length; i++) {
			orig_load(el[i], "fill")
		}
	}
	function search_prompt() {
		if (!searching) {
			var term = prompt("Enter a search term (regexp " +
			    "allowed, eg: ^ext4_)", "");
			if (term != null) {
				search(term)
			}
		} else {
			reset_search();
			searching = 0;
			searchbtn.classList.remove("show");
			searchbtn.firstChild.nodeValue = "Search"
			matchedtxt.classList.add("hide");
			matchedtxt.firstChild.nodeValue = ""
		}
	}
	function search(term) {
		var re = new RegExp(term);
		var el = document.getElementById("frames").children;
		var matches = new Object();
		var maxwidth = 0;
		for (var i = 0; i < el.length; i++) {
			var e = el[i];
			var func = g_to_func(e);
			var rect = find_child(e, "rect");
			if (func == null || rect == null)
				continue;

			// Save max width. Only works as we have a root frame
			var w = parseFloat(rect.attributes.width.value);
			if (w > maxwidth)
				maxwidth = w;

			if (func.match(re)) {
				// highlight
				var x = parseFloat(rect.attributes.x.value);
				orig_save(rect, "fill");
				rect.attributes.fill.value = "rgb(230,0,230)";

				// remember matches
				if (matches[x] == undefined) {
					matches[x] = w;
				} else {
					if (w > matches[x]) {
						// overwrite with parent
						matches[x] = w;
					}
				}
				searching = 1;
			}
		}
		if (!searching)
			return;

		searchbtn.classList.add("show");
		searchbtn.firstChild.nodeValue = "Reset Search";

		// calculate percent matched, excluding vertical overlap
		var count = 0;
		var lastx = -1;
		var lastw = 0;
		var keys = Array();
		for (k in matches) {
			if (matches.hasOwnProperty(k))
				keys.push(k);
		}
		// sort the matched frames by their x location
		// ascending, then width descending
		keys.sort(function(a, b){
			return a - b;
		});
		// Step through frames saving only the biggest bottom-up frames
		// thanks to the sort order. This relies on the tree property
		// where children are always smaller than their parents.
		var fudge = 0.0001;	// JavaScript floating point
		for (var k in keys) {
			var x = parseFloat(keys[k]);
			var w = matches[keys[k]];
			if (x >= lastx + lastw - fudge) {
				count += w;
				lastx = x;
				lastw = w;
			}
		}
		// display matched percent
		matchedtxt.classList.remove("hide");
		var pct = 100 * count / maxwidth;
		if (pct != 100) pct = pct.toFixed(1)
		matchedtxt.firstChild.nodeValue = "Matched: " + pct + "%";
	}
]]>
</script>
<rect x="0" y="0" width="100%" height="100%" fill="rgb(240,240,220)"/>
<text id="title" x="600" y="24">Flame Graph</text>
<text id="details" x="10" y="501"> </text>
<text id="unzoom" x="10" y="24" class="hide">Reset Zoom</text>
<text id="search" x="1090" y="24">Search</text>
<text id="matched" x="1090" y="501"> </text>
<g id="frames">
<g>
<title>all (7,217 samples, 100.00%)</title><rect x="10.0" y="467.0" width="1180.0" height="15" fill="#fa7b7b" rx="2" ry="2"/>
<text x="13.0" y="478.0">all</text>
</g>
<g>
<title>[unknown] (2 samples, 0.03%)</title><rect x="10.0" y="451.0" width="0.3" height="15" fill="#ec6969" rx="2" ry="2"/>
<text x="13.0" y="462.0"></text>
</g>
<g>
<title>com/luxoft/example1/Example.main (7,194 samples, 99.68%)</title><rect x="10.5" y="451.0" width="1176.2" height="15" fill="#67f867" rx="2" ry="2"/>
<text x="13.5" y="462.0">com/luxoft/example1/Example.main</text>
</g>
<g>
<title>com/luxoft/example1/Example.start (7,194 samples, 99.68%)</title><rect x="10.5" y="435.0" width="1176.2" height="15" fill="#67f867" rx="2" ry="2"/>
<text x="13.5" y="446.0">com/luxoft/example1/Example.start</text>
</g>
<g>
<title>com/luxoft/example1/Example.increase (7,178 samples, 99.46%)</title><rect x="10.5" y="419.0" width="1173.6" height="15" fill="#6bfc6b" rx="2" ry="2"/>
<text x="13.5" y="430.0">com/luxoft/example1/Example.increase</text>
</g>
<g>
<title>java/io/PrintStream.println (16 samples, 0.22%)</title><rect x="1184.1" y="419.0" width="2.6" height="15" fill="#55e655" rx="2" ry="2"/>
<text x="1187.1" y="430.0"></text>
</g>
<g>
<title>java/io/PrintStream.newLine (2 samples, 0.03%)</title><rect x="1184.1" y="403.0" width="0.3" height="15" fill="#5aeb5a" rx="2" ry="2"/>
<text x="1187.1" y="414.0"></text>
</g>
<g>
<title>java/io/PrintStream.print (14 samples, 0.19%)</title><rect x="1184.4" y="403.0" width="2.3" height="15" fill="#67f867" rx="2" ry="2"/>
<text x="1187.4" y="414.0"></text>
</g>
<g>
<title>java/io/PrintStream.write (14 samples, 0.19%)</title><rect x="1184.4" y="387.0" width="2.3" height="15" fill="#58e958" rx="2" ry="2"/>
<text x="1187.4" y="398.0"></text>
</g>
<g>
<title>java/io/OutputStreamWriter.flushBuffer (14 samples, 0.19%)</title><rect x="1184.4" y="371.0" width="2.3" height="15" fill="#60f160" rx="2" ry="2"/>
<text x="1187.4" y="382.0"></text>
</g>
<g>
<title>sun/nio/cs/StreamEncoder.flushBuffer (14 samples, 0.19%)</title><rect x="1184.4" y="355.0" width="2.3" height="15" fill="#5eef5e" rx="2" ry="2"/>
<text x="1187.4" y="366.0"></text>
</g>
<g>
<title>sun/nio/cs/StreamEncoder.implFlushBuffer (13 samples, 0.18%)</title><rect x="1184.4" y="339.0" width="2.2" height="15" fill="#62f362" rx="2" ry="2"/>
<text x="1187.4" y="350.0"></text>
</g>
<g>
<title>sun/nio/cs/StreamEncoder.writeBytes (13 samples, 0.18%)</title><rect x="1184.4" y="323.0" width="2.2" height="15" fill="#5aeb5a" rx="2" ry="2"/>
<text x="1187.4" y="334.0"></text>
</g>
<g>
<title>java/io/PrintStream.write (13 samples, 0.18%)</title><rect x="1184.4" y="307.0" width="2.2" height="15" fill="#5ff05f" rx="2" ry="2"/>
<text x="1187.4" y="318.0"></text>
</g>
<g>
<title>java/io/BufferedOutputStream.flush (13 samples, 0.18%)</title><rect x="1184.4" y="291.0" width="2.2" height="15" fill="#6cfd6c" rx="2" ry="2"/>
<text x="1187.4" y="302.0"></text>
</g>
<g>
<title>java/io/BufferedOutputStream.flushBuffer (13 samples, 0.18%)</title><rect x="1184.4" y="275.0" width="2.2" height="15" fill="#6bfc6b" rx="2" ry="2"/>
<text x="1187.4" y="286.0"></text>
</g>
<g>
<title>java/io/FileOutputStream.write (13 samples, 0.18%)</title><rect x="1184.4" y="259.0" width="2.2" height="15" fill="#63f463" rx="2" ry="2"/>
<text x="1187.4" y="270.0"></text>
</g>
<g>
<title>java/io/FileOutputStream.writeBytes (13 samples, 0.18%)</title><rect x="1184.4" y="243.0" width="2.2" height="15" fill="#65f665" rx="2" ry="2"/>
<text x="1187.4" y="254.0"></text>
</g>
<g>
<title>[unknown] (3 samples, 0.04%)</title><rect x="1184.4" y="227.0" width="0.5" height="15" fill="#e55f5f" rx="2" ry="2"/>
<text x="1187.4" y="238.0"></text>
</g>
<g>
<title>write (3 samples, 0.04%)</title><rect x="1184.4" y="211.0" width="0.5" height="15" fill="#f37272" rx="2" ry="2"/>
<text x="1187.4" y="222.0"></text>
</g>
<g>
<title>entry_SYSCALL_64_after_hwframe (3 samples, 0.04%)</title><rect x="1184.4" y="195.0" width="0.5" height="15" fill="#e17d00" rx="2" ry="2"/>
<text x="1187.4" y="206.0"></text>
</g>
<g>
<title>do_syscall_64 (3 samples, 0.04%)</title><rect x="1184.4" y="179.0" width="0.5" height="15" fill="#e88400" rx="2" ry="2"/>
<text x="1187.4" y="190.0"></text>
</g>
<g>
<title>__x64_sys_write (3 samples, 0.04%)</title><rect x="1184.4" y="163.0" width="0.5" height="15" fill="#e58100" rx="2" ry="2"/>
<text x="1187.4" y="174.0"></text>
</g>
<g>
<title>ksys_write (3 samples, 0.04%)</title><rect x="1184.4" y="147.0" width="0.5" height="15" fill="#f99500" rx="2" ry="2"/>
<text x="1187.4" y="158.0"></text>
</g>
<g>
<title>vfs_write (3 samples, 0.04%)</title><rect x="1184.4" y="131.0" width="0.5" height="15" fill="#e58100" rx="2" ry="2"/>
<text x="1187.4" y="142.0"></text>
</g>
<g>
<title>__vfs_write (3 samples, 0.04%)</title><rect x="1184.4" y="115.0" width="0.5" height="15" fill="#ed8900" rx="2" ry="2"/>
<text x="1187.4" y="126.0"></text>
</g>
<g>
<title>new_sync_write (3 samples, 0.04%)</title><rect x="1184.4" y="99.0" width="0.5" height="15" fill="#e48000" rx="2" ry="2"/>
<text x="1187.4" y="110.0"></text>
</g>
<g>
<title>pipe_write (3 samples, 0.04%)</title><rect x="1184.4" y="83.0" width="0.5" height="15" fill="#e48000" rx="2" ry="2"/>
<text x="1187.4" y="94.0"></text>
</g>
<g>
<title>file_update_time (3 samples, 0.04%)</title><rect x="1184.4" y="67.0" width="0.5" height="15" fill="#fe9a00" rx="2" ry="2"/>
<text x="1187.4" y="78.0"></text>
</g>
<g>
<title>current_time (3 samples, 0.04%)</title><rect x="1184.4" y="51.0" width="0.5" height="15" fill="#e78300" rx="2" ry="2"/>
<text x="1187.4" y="62.0"></text>
</g>
<g>
<title>ktime_get_coarse_real_ts64 (3 samples, 0.04%)</title><rect x="1184.4" y="35.0" width="0.5" height="15" fill="#f08c00" rx="2" ry="2"/>
<text x="1187.4" y="46.0"></text>
</g>
<g>
<title>__GI___read_nocancel (5 samples, 0.07%)</title><rect x="1184.9" y="227.0" width="0.8" height="15" fill="#fa7b7b" rx="2" ry="2"/>
<text x="1187.9" y="238.0"></text>
</g>
<g>
<title>write (5 samples, 0.07%)</title><rect x="1184.9" y="211.0" width="0.8" height="15" fill="#f37272" rx="2" ry="2"/>
<text x="1187.9" y="222.0"></text>
</g>
<g>
<title>entry_SYSCALL_64_after_hwframe (5 samples, 0.07%)</title><rect x="1184.9" y="195.0" width="0.8" height="15" fill="#e98500" rx="2" ry="2"/>
<text x="1187.9" y="206.0"></text>
</g>
<g>
<title>do_syscall_64 (5 samples, 0.07%)</title><rect x="1184.9" y="179.0" width="0.8" height="15" fill="#f49000" rx="2" ry="2"/>
<text x="1187.9" y="190.0"></text>
</g>
<g>
<title>__x64_sys_write (5 samples, 0.07%)</title><rect x="1184.9" y="163.0" width="0.8" height="15" fill="#f08c00" rx="2" ry="2"/>
<text x="1187.9" y="174.0"></text>
</g>
<g>
<title>ksys_write (5 samples, 0.07%)</title><rect x="1184.9" y="147.0" width="0.8" height="15" fill="#ef8b00" rx="2" ry="2"/>
<text x="1187.9" y="158.0"></text>
</g>
<g>
<title>vfs_write (5 samples, 0.07%)</title><rect x="1184.9" y="131.0" width="0.8" height="15" fill="#fe9a00" rx="2" ry="2"/>
<text x="1187.9" y="142.0"></text>
</g>
<g>
<title>__vfs_write (5 samples, 0.07%)</title><rect x="1184.9" y="115.0" width="0.8" height="15" fill="#e98500" rx="2" ry="2"/>
<text x="1187.9" y="126.0"></text>
</g>
<g>
<title>new_sync_write (5 samples, 0.07%)</title><rect x="1184.9" y="99.0" width="0.8" height="15" fill="#f89400" rx="2" ry="2"/>
<text x="1187.9" y="110.0"></text>
</g>
<g>
<title>pipe_write (5 samples, 0.07%)</title><rect x="1184.9" y="83.0" width="0.8" height="15" fill="#f08c00" rx="2" ry="2"/>
<text x="1187.9" y="94.0"></text>
</g>
<g>
<title>__wake_up_sync_key (2 samples, 0.03%)</title><rect x="1184.9" y="67.0" width="0.4" height="15" fill="#f89400" rx="2" ry="2"/>
<text x="1187.9" y="78.0"></text>
</g>
<g>
<title>__wake_up_common_lock (2 samples, 0.03%)</title><rect x="1184.9" y="51.0" width="0.4" height="15" fill="#ed8900" rx="2" ry="2"/>
<text x="1187.9" y="62.0"></text>
</g>
<g>
<title>_raw_spin_unlock_irqrestore (2 samples, 0.03%)</title><rect x="1184.9" y="35.0" width="0.4" height="15" fill="#fb9700" rx="2" ry="2"/>
<text x="1187.9" y="46.0"></text>
</g>
<g>
<title>file_update_time (3 samples, 0.04%)</title><rect x="1185.3" y="67.0" width="0.4" height="15" fill="#e98500" rx="2" ry="2"/>
<text x="1188.3" y="78.0"></text>
</g>
<g>
<title>current_time (2 samples, 0.03%)</title><rect x="1185.4" y="51.0" width="0.3" height="15" fill="#eb8700" rx="2" ry="2"/>
<text x="1188.4" y="62.0"></text>
</g>
<g>
<title>ktime_get_coarse_real_ts64 (2 samples, 0.03%)</title><rect x="1185.4" y="35.0" width="0.3" height="15" fill="#f99500" rx="2" ry="2"/>
<text x="1188.4" y="46.0"></text>
</g>
<g>
<title>write (5 samples, 0.07%)</title><rect x="1185.7" y="227.0" width="0.9" height="15" fill="#fc7e7e" rx="2" ry="2"/>
<text x="1188.7" y="238.0"></text>
</g>
<g>
<title>entry_SYSCALL_64_after_hwframe (4 samples, 0.06%)</title><rect x="1185.9" y="211.0" width="0.7" height="15" fill="#e37f00" rx="2" ry="2"/>
<text x="1188.9" y="222.0"></text>
</g>
<g>
<title>do_syscall_64 (4 samples, 0.06%)</title><rect x="1185.9" y="195.0" width="0.7" height="15" fill="#fd9900" rx="2" ry="2"/>
<text x="1188.9" y="206.0"></text>
</g>
<g>
<title>__x64_sys_write (4 samples, 0.06%)</title><rect x="1185.9" y="179.0" width="0.7" height="15" fill="#f08c00" rx="2" ry="2"/>
<text x="1188.9" y="190.0"></text>
</g>
<g>
<title>ksys_write (4 samples, 0.06%)</title><rect x="1185.9" y="163.0" width="0.7" height="15" fill="#e37f00" rx="2" ry="2"/>
<text x="1188.9" y="174.0"></text>
</g>
<g>
<title>vfs_write (4 samples, 0.06%)</title><rect x="1185.9" y="147.0" width="0.7" height="15" fill="#e68200" rx="2" ry="2"/>
<text x="1188.9" y="158.0"></text>
</g>
<g>
<title>__vfs_write (4 samples, 0.06%)</title><rect x="1185.9" y="131.0" width="0.7" height="15" fill="#f49000" rx="2" ry="2"/>
<text x="1188.9" y="142.0"></text>
</g>
<g>
<title>new_sync_write (4 samples, 0.06%)</title><rect x="1185.9" y="115.0" width="0.7" height="15" fill="#fb9700" rx="2" ry="2"/>
<text x="1188.9" y="126.0"></text>
</g>
<g>
<title>pipe_write (4 samples, 0.06%)</title><rect x="1185.9" y="99.0" width="0.7" height="15" fill="#eb8700" rx="2" ry="2"/>
<text x="1188.9" y="110.0"></text>
</g>
<g>
<title>file_update_time (2 samples, 0.03%)</title><rect x="1186.2" y="83.0" width="0.4" height="15" fill="#e27e00" rx="2" ry="2"/>
<text x="1189.2" y="94.0"></text>
</g>
<g>
<title>current_time (2 samples, 0.03%)</title><rect x="1186.2" y="67.0" width="0.4" height="15" fill="#e17d00" rx="2" ry="2"/>
<text x="1189.2" y="78.0"></text>
</g>
<g>
<title>ktime_get_coarse_real_ts64 (2 samples, 0.03%)</title><rect x="1186.2" y="51.0" width="0.4" height="15" fill="#ee8a00" rx="2" ry="2"/>
<text x="1189.2" y="62.0"></text>
</g>
<g>
<title>start_thread (20 samples, 0.28%)</title><rect x="1186.7" y="451.0" width="3.3" height="15" fill="#e25c5c" rx="2" ry="2"/>
<text x="1189.7" y="462.0"></text>
</g>
<g>
<title>thread_native_entry(Thread*) (20 samples, 0.28%)</title><rect x="1186.7" y="435.0" width="3.3" height="15" fill="#e86363" rx="2" ry="2"/>
<text x="1189.7" y="446.0"></text>
</g>
<g>
<title>Thread::call_run() (20 samples, 0.28%)</title><rect x="1186.7" y="419.0" width="3.3" height="15" fill="#e5e545" rx="2" ry="2"/>
<text x="1189.7" y="430.0"></text>
</g>
<g>
<title>JavaThread::run() (17 samples, 0.24%)</title><rect x="1186.9" y="403.0" width="2.8" height="15" fill="#e3e345" rx="2" ry="2"/>
<text x="1189.9" y="414.0"></text>
</g>
<g>
<title>JavaThread::thread_main_inner() (17 samples, 0.24%)</title><rect x="1186.9" y="387.0" width="2.8" height="15" fill="#e1e144" rx="2" ry="2"/>
<text x="1189.9" y="398.0"></text>
</g>
<g>
<title>CompileBroker::compiler_thread_loop() (17 samples, 0.24%)</title><rect x="1186.9" y="371.0" width="2.8" height="15" fill="#cfcf3e" rx="2" ry="2"/>
<text x="1189.9" y="382.0"></text>
</g>
<g>
<title>CompileBroker::invoke_compiler_on_method(CompileTask*) (17 samples, 0.24%)</title><rect x="1186.9" y="355.0" width="2.8" height="15" fill="#d8d841" rx="2" ry="2"/>
<text x="1189.9" y="366.0"></text>
</g>
<g>
<title>C2Compiler::compile_method(ciEnv*, ciMethod*, int, DirectiveSet*) (17 samples, 0.24%)</title><rect x="1186.9" y="339.0" width="2.8" height="15" fill="#d3d33f" rx="2" ry="2"/>
<text x="1189.9" y="350.0"></text>
</g>
<g>
<title>Compile::Compile(ciEnv*, C2Compiler*, ciMethod*, int, bool, bool, bool, DirectiveSet*) (17 samples, 0.24%)</title><rect x="1186.9" y="323.0" width="2.8" height="15" fill="#dede43" rx="2" ry="2"/>
<text x="1189.9" y="334.0"></text>
</g>
<g>
<title>Compile::Code_Gen() (8 samples, 0.11%)</title><rect x="1186.9" y="307.0" width="1.3" height="15" fill="#d7d741" rx="2" ry="2"/>
<text x="1189.9" y="318.0"></text>
</g>
<g>
<title>PhaseCFG::do_global_code_motion() (2 samples, 0.03%)</title><rect x="1187.2" y="291.0" width="0.3" height="15" fill="#dcdc42" rx="2" ry="2"/>
<text x="1190.2" y="302.0"></text>
</g>
<g>
<title>PhaseCFG::global_code_motion() (2 samples, 0.03%)</title><rect x="1187.2" y="275.0" width="0.3" height="15" fill="#d7d741" rx="2" ry="2"/>
<text x="1190.2" y="286.0"></text>
</g>
<g>
<title>PhaseChaitin::Register_Allocate() (4 samples, 0.06%)</title><rect x="1187.5" y="291.0" width="0.7" height="15" fill="#c9c93c" rx="2" ry="2"/>
<text x="1190.5" y="302.0"></text>
</g>
<g>
<title>Compile::Optimize() (5 samples, 0.07%)</title><rect x="1188.2" y="307.0" width="0.8" height="15" fill="#d5d540" rx="2" ry="2"/>
<text x="1191.2" y="318.0"></text>
</g>
<g>
<title>PhaseIdealLoop::build_and_optimize(bool, bool, bool) (4 samples, 0.06%)</title><rect x="1188.2" y="291.0" width="0.7" height="15" fill="#e3e345" rx="2" ry="2"/>
<text x="1191.2" y="302.0"></text>
</g>
<g>
<title>ParseGenerator::generate(JVMState*) (4 samples, 0.06%)</title><rect x="1189.0" y="307.0" width="0.7" height="15" fill="#e3e345" rx="2" ry="2"/>
<text x="1192.0" y="318.0"></text>
</g>
<g>
<title>Parse::Parse(JVMState*, ciMethod*, float) (4 samples, 0.06%)</title><rect x="1189.0" y="291.0" width="0.7" height="15" fill="#dddd43" rx="2" ry="2"/>
<text x="1192.0" y="302.0"></text>
</g>
<g>
<title>Parse::do_all_blocks() (4 samples, 0.06%)</title><rect x="1189.0" y="275.0" width="0.7" height="15" fill="#d0d03e" rx="2" ry="2"/>
<text x="1192.0" y="286.0"></text>
</g>
<g>
<title>Parse::do_one_block() (4 samples, 0.06%)</title><rect x="1189.0" y="259.0" width="0.7" height="15" fill="#dede43" rx="2" ry="2"/>
<text x="1192.0" y="270.0"></text>
</g>
<g>
<title>Parse::do_one_bytecode() (4 samples, 0.06%)</title><rect x="1189.0" y="243.0" width="0.7" height="15" fill="#dbdb42" rx="2" ry="2"/>
<text x="1192.0" y="254.0"></text>
</g>
<g>
<title>Parse::do_call() (4 samples, 0.06%)</title><rect x="1189.0" y="227.0" width="0.7" height="15" fill="#d2d23f" rx="2" ry="2"/>
<text x="1192.0" y="238.0"></text>
</g>
<g>
<title>ParseGenerator::generate(JVMState*) (2 samples, 0.03%)</title><rect x="1189.2" y="211.0" width="0.3" height="15" fill="#dcdc42" rx="2" ry="2"/>
<text x="1192.2" y="222.0"></text>
</g>
<g>
<title>Parse::Parse(JVMState*, ciMethod*, float) (2 samples, 0.03%)</title><rect x="1189.2" y="195.0" width="0.3" height="15" fill="#cccc3d" rx="2" ry="2"/>
<text x="1192.2" y="206.0"></text>
</g>
<g>
<title>Parse::do_all_blocks() (2 samples, 0.03%)</title><rect x="1189.2" y="179.0" width="0.3" height="15" fill="#d5d540" rx="2" ry="2"/>
<text x="1192.2" y="190.0"></text>
</g>
<g>
<title>WatcherThread::run() (2 samples, 0.03%)</title><rect x="1189.7" y="403.0" width="0.3" height="15" fill="#e2e244" rx="2" ry="2"/>
<text x="1192.7" y="414.0"></text>
</g>
</g>
</svg>
